<svg version="1.1" id="Layer_1" xmlns="http://www.w3.org/2000/svg" xmlns:xlink="http://www.w3.org/1999/xlink" x="0px" y="0px"
	 width="100%" viewBox="0 0 890 889" enable-background="new 0 0 890 889" xml:space="preserve">
<path fill="#000606" opacity="1.000000" stroke="none" 
	d="
M1.000000,388.000000 
	C1.000000,259.036591 1.000000,130.073166 1.000000,1.054876 
	C297.545929,1.054876 594.091858,1.054876 891.000000,1.054876 
	C891.000000,75.691193 891.000000,150.382965 890.547119,225.537598 
	C877.544189,225.310486 868.207520,230.291245 862.135193,241.459442 
	C861.202576,243.174835 859.092407,244.250015 857.526794,245.621262 
	C856.270752,244.022430 854.728516,242.572556 853.806213,240.800079 
	C848.724365,231.033966 841.316711,224.032150 830.044678,223.183456 
	C817.742126,222.257187 806.547424,225.933075 800.025391,237.028427 
	C797.184021,241.862167 796.855225,248.358307 796.150146,254.191879 
	C795.735352,257.623169 795.088501,259.882721 791.798401,261.735535 
	C775.768066,270.763031 760.718201,281.074554 749.584534,296.114502 
	C746.576904,293.240936 743.806213,290.618286 740.846069,287.715149 
	C734.198364,282.643280 727.556274,278.273315 718.676819,278.026550 
	C702.099731,275.906006 685.950989,273.840790 669.815735,271.674957 
	C646.105713,268.492432 622.407898,265.218079 598.699951,262.019867 
	C574.499451,258.755219 550.298523,255.492798 526.086670,252.314178 
	C514.397278,250.779556 502.682343,249.439423 490.631775,247.945618 
	C488.160461,247.937180 486.036407,247.994370 483.682495,247.990448 
	C483.452637,247.929352 482.995636,247.797379 482.799744,247.488861 
	C481.386322,246.786423 480.195190,246.207047 478.946899,246.029846 
	C472.705170,245.143799 466.445496,244.385620 460.197632,243.541534 
	C436.847382,240.386948 413.502563,237.191940 390.149506,234.058548 
	C365.975677,230.815033 341.798553,227.595413 317.614960,224.425583 
	C306.269257,222.938446 294.905060,221.592728 283.226196,220.095932 
	C276.932434,218.326492 270.961731,216.644043 264.993347,214.986374 
	C264.995667,215.011154 265.036011,214.981949 264.855347,214.722961 
	C263.105042,214.304871 261.535370,214.145737 259.571594,213.979706 
	C257.387024,213.616776 255.564392,213.376068 253.811111,212.886810 
	C237.744415,208.403366 221.424454,207.580460 205.019104,210.131058 
	C185.407043,213.180222 167.051437,219.649918 150.636383,231.180435 
	C139.425217,239.055557 128.860260,247.537094 120.565567,258.987396 
	C114.935089,258.996033 109.713417,258.488647 104.634682,259.123932 
	C97.253571,260.047241 89.316704,260.396667 82.787140,263.474030 
	C68.012970,270.436981 52.621147,277.171387 42.605686,291.050903 
	C36.330585,299.746979 29.815664,308.561554 25.365311,318.224274 
	C14.970980,340.792755 13.627732,364.698853 17.584116,388.918274 
	C11.784917,388.552002 6.392458,388.276001 1.000000,388.000000 
z"/>
<path fill="#000D0D" opacity="1.000000" stroke="none" 
	d="
M1.000000,388.468658 
	C6.392458,388.276001 11.784917,388.552002 17.667860,389.305298 
	C19.718410,395.190155 21.026457,400.685944 22.883865,405.989349 
	C29.548473,425.018646 40.229652,441.405457 55.858669,454.301910 
	C80.251778,474.430145 107.766434,482.329895 139.216232,475.301117 
	C148.164078,482.948425 157.335403,489.524628 167.526718,495.045441 
	C190.328781,507.397705 214.531662,512.078796 239.983780,509.822937 
	C263.371796,507.750092 285.435089,500.614990 306.354248,488.986603 
	C307.908264,488.788971 309.084991,488.708466 310.195587,488.394226 
	C337.108215,480.779724 364.029633,473.195618 390.914185,465.482941 
	C404.983032,461.446899 418.984833,457.177277 433.393188,452.980011 
	C437.517822,451.720917 441.218658,450.315491 445.024872,449.308167 
	C451.997009,447.462982 459.025208,445.826935 466.041962,444.153870 
	C470.660187,443.052734 475.299286,442.039459 480.017517,441.366028 
	C486.889130,464.756165 490.710785,488.303070 491.996490,512.489685 
	C485.222565,515.154663 484.002533,518.141724 487.841370,524.263611 
	C486.522522,526.478149 484.808838,528.438110 488.035706,530.515503 
	C488.023560,532.804077 487.839386,534.652710 488.046631,536.456482 
	C488.557281,540.901672 487.168427,542.912415 482.241241,543.386047 
	C474.352692,544.144348 466.536652,545.796326 458.744171,547.343567 
	C455.788910,547.930237 453.816559,549.747314 453.952759,553.321106 
	C454.084656,556.781250 454.095764,559.795410 458.215210,561.307739 
	C462.825928,563.000488 463.544891,568.230408 459.958221,571.472046 
	C455.770203,575.257141 455.888000,579.622375 459.904083,583.610779 
	C461.026245,584.725220 461.956146,586.772217 461.825134,588.292419 
	C460.801910,600.168518 459.345459,612.007324 458.320831,623.883362 
	C457.082367,638.238464 456.136475,652.618896 455.050049,667.445312 
	C456.156921,681.793579 457.209320,695.690857 458.419098,709.574341 
	C459.484650,721.802429 460.785889,734.010315 461.791626,746.242859 
	C461.885773,747.387756 460.633881,748.662659 459.954407,749.847046 
	C458.997589,751.514771 457.275421,753.094482 457.131714,754.816345 
	C456.534119,761.975830 456.706390,761.997559 449.313049,761.998657 
	C423.008240,762.002502 396.702423,762.119568 370.399475,761.898438 
	C365.298737,761.855652 363.432159,763.491150 363.935364,768.496277 
	C364.191284,771.041565 363.758667,773.656128 363.596008,777.118530 
	C359.536316,775.953247 356.248779,775.009644 352.535950,774.047241 
	C347.148193,773.171082 345.197876,775.511780 344.046051,780.253174 
	C338.363068,803.646912 332.255310,826.937012 326.438293,850.298767 
	C323.151825,863.497559 320.137115,876.764038 317.000000,890.000000 
	C211.723007,890.000000 106.446014,890.000000 1.000000,890.000000 
	C1.000000,722.979126 1.000000,555.958252 1.000000,388.468658 
z"/>
<path fill="#000C0C" opacity="1.000000" stroke="none" 
	d="
M749.821411,296.365417 
	C760.718201,281.074554 775.768066,270.763031 791.798401,261.735535 
	C795.088501,259.882721 795.735352,257.623169 796.150146,254.191879 
	C796.855225,248.358307 797.184021,241.862167 800.025391,237.028427 
	C806.547424,225.933075 817.742126,222.257187 830.044678,223.183456 
	C841.316711,224.032150 848.724365,231.033966 853.806213,240.800079 
	C854.728516,242.572556 856.270752,244.022430 857.526794,245.621262 
	C859.092407,244.250015 861.202576,243.174835 862.135193,241.459442 
	C868.207520,230.291245 877.544189,225.310486 890.547119,226.000214 
	C891.000000,447.216370 891.000000,668.432739 891.000000,890.000000 
	C836.646301,890.000000 782.291809,890.000000 727.458374,889.586731 
	C719.377075,852.388123 711.745911,815.608704 704.228088,778.806152 
	C703.637268,775.913940 702.270142,774.950256 699.494812,774.987976 
	C691.339661,775.098999 683.182556,775.071167 674.654175,775.149048 
	C668.797852,776.912598 663.313599,778.624756 656.999695,780.595947 
	C656.999695,776.895081 657.000305,774.111267 656.999573,771.327454 
	C656.997192,762.003601 656.997009,762.001526 647.949036,762.000793 
	C629.142151,761.999146 610.332092,761.809998 591.530579,762.127258 
	C586.543823,762.211365 584.560059,760.408936 584.194763,755.807983 
	C584.065918,754.185059 583.976196,751.433044 583.196533,751.167053 
	C577.325745,749.164734 579.485107,745.163513 579.858093,741.087158 
	C581.444946,723.745911 582.659180,706.370483 584.355347,688.906067 
	C585.514221,687.665222 586.789490,686.623596 587.054932,685.368408 
	C587.902222,681.361633 588.752258,677.287537 588.881165,673.216614 
	C589.000549,669.449097 590.141357,667.584473 594.084106,667.977539 
	C595.396606,668.108337 596.729553,668.034302 598.026184,668.416992 
	C600.720825,672.193298 603.921875,674.564270 608.234131,673.260620 
	C610.002502,671.119263 612.496643,669.918884 613.996582,667.958008 
	C615.688660,665.745911 617.531433,662.751343 617.299866,660.285767 
	C617.149109,658.681091 613.512756,656.416138 611.263794,656.191589 
	C605.729797,655.639038 600.229553,656.414368 596.547852,661.977905 
	C594.011841,661.951538 591.887878,661.951538 590.914795,661.951538 
	C588.245728,654.152588 585.701782,646.772583 583.215271,639.373291 
	C582.957947,638.607605 583.055542,637.725464 582.966614,636.899780 
	C581.191284,620.418823 579.355530,603.943848 577.736511,587.447571 
	C577.597473,586.030090 578.509460,584.057251 579.592834,583.056519 
	C582.867981,580.031189 583.060974,574.156494 579.648315,571.442078 
	C575.437805,568.093018 575.866455,562.896667 580.779297,560.593628 
	C584.216614,558.982300 585.181213,556.487183 584.998169,552.972168 
	C584.811890,549.394104 582.943909,547.382385 579.632935,546.777466 
	C572.297119,545.437195 564.962097,544.001038 557.565735,543.111206 
	C551.104309,542.334106 550.302979,541.891541 550.019165,535.455994 
	C549.953308,533.962646 550.030273,532.463135 550.312256,530.756348 
	C552.657410,528.139771 552.392578,525.950806 550.169312,523.649475 
	C553.455750,517.285461 552.684570,515.229797 546.034851,511.869934 
	C546.724854,506.148712 547.256042,500.383575 548.272583,494.705292 
	C548.434753,493.798950 551.834473,492.530060 551.951233,492.694855 
	C555.254517,497.355072 560.606995,496.220184 565.051636,497.505463 
	C567.989502,498.355042 570.663330,498.285248 572.174072,494.919556 
	C574.189880,490.428436 573.708618,484.864166 571.032288,482.813141 
	C564.072937,477.479614 557.714783,478.689636 552.761719,486.108948 
	C552.166016,487.001282 550.572449,487.838959 549.595764,487.689911 
	C548.657898,487.546814 547.276184,486.143921 547.195129,485.199677 
	C546.387634,475.794464 545.407471,466.375458 545.269714,456.948730 
	C545.104736,445.648804 545.713623,434.337616 546.194946,422.745453 
	C548.151733,421.591400 549.815674,420.421967 551.662598,419.898621 
	C606.980896,404.222992 662.317383,388.611237 718.058594,372.999878 
	C719.746033,372.334198 721.025879,371.658081 722.378296,370.980835 
	C722.450806,370.979675 722.595764,370.986450 723.036011,371.007507 
	C731.140686,370.577667 736.886230,365.859650 742.022644,361.204193 
	C756.658936,347.938385 761.250366,331.179321 756.776550,311.617188 
	C754.363647,306.313843 752.092529,301.339630 749.821411,296.365417 
z"/>
<path fill="#250F00" opacity="1.000000" stroke="none" 
	d="
M584.009460,689.007568 
	C582.659180,706.370483 581.444946,723.745911 579.858093,741.087158 
	C579.485107,745.163513 577.325745,749.164734 583.196533,751.167053 
	C583.976196,751.433044 584.065918,754.185059 584.194763,755.807983 
	C584.560059,760.408936 586.543823,762.211365 591.530579,762.127258 
	C610.332092,761.809998 629.142151,761.999146 647.949036,762.000793 
	C656.997009,762.001526 656.997192,762.003601 656.999573,771.327454 
	C657.000305,774.111267 656.999695,776.895081 656.999695,780.595947 
	C663.313599,778.624756 668.797852,776.912598 674.659851,775.547668 
	C680.187134,800.911133 685.391479,825.916199 690.463623,850.948120 
	C693.096313,863.940979 695.495361,876.981201 698.000000,890.000000 
	C678.312439,890.000000 658.624878,890.000000 638.436279,889.611816 
	C635.250488,876.395142 632.565002,863.566895 629.881165,850.738159 
	C624.937134,827.105408 619.968628,803.477783 615.085205,779.832520 
	C614.523621,777.113464 613.692505,775.030090 610.458557,775.035095 
	C602.127686,775.048096 593.793152,774.927490 585.470886,775.196228 
	C584.498657,775.227600 582.709351,777.455994 582.817566,778.509888 
	C583.206604,782.297668 584.256104,786.016602 585.040161,789.764954 
	C592.028625,823.176270 599.013794,856.588196 606.000000,890.000000 
	C582.645752,890.000000 559.291565,890.000000 535.320557,889.642700 
	C533.691467,885.580017 532.679260,881.874573 531.666992,878.169189 
	C530.797668,878.343323 529.928284,878.517456 529.058899,878.691589 
	C529.372620,882.461060 529.686279,886.230530 530.000000,890.000000 
	C510.645782,890.000000 491.291534,890.000000 471.468201,889.570007 
	C470.546722,877.217957 470.320587,876.998779 458.474365,876.998657 
	C457.312500,876.998657 456.150665,876.998596 454.988800,876.998596 
	C442.164459,876.998596 442.164459,876.998596 440.000000,890.000000 
	C409.312439,890.000000 378.624878,890.000000 347.480286,889.592468 
	C347.165436,888.198425 347.216553,887.188477 347.463104,886.228760 
	C355.788269,853.820129 364.137451,821.417664 372.466339,789.010010 
	C373.573486,784.701965 374.590942,780.370911 375.657013,776.021729 
	C371.315643,774.050964 369.090240,775.344482 368.096313,779.213806 
	C364.753052,792.228882 361.509399,805.270447 358.048981,818.254272 
	C351.975250,841.043701 345.765167,863.796692 339.630859,886.570007 
	C339.329498,887.688782 339.206207,888.855591 339.000000,890.000000 
	C334.310760,890.000000 329.621490,890.000000 324.477844,889.592285 
	C324.483734,886.907288 324.849762,884.606201 325.419067,882.356567 
	C330.845001,860.915771 336.302887,839.483154 341.756622,818.049377 
	C345.487396,803.387207 349.226105,788.727051 352.961243,774.065979 
	C356.248779,775.009644 359.536316,775.953247 363.596008,777.118530 
	C363.758667,773.656128 364.191284,771.041565 363.935364,768.496277 
	C363.432159,763.491150 365.298737,761.855652 370.399475,761.898438 
	C396.702423,762.119568 423.008240,762.002502 449.313049,761.998657 
	C456.706390,761.997559 456.534119,761.975830 457.131714,754.816345 
	C457.275421,753.094482 458.997589,751.514771 459.954407,749.847046 
	C460.633881,748.662659 461.885773,747.387756 461.791626,746.242859 
	C460.785889,734.010315 459.484650,721.802429 458.419098,709.574341 
	C457.209320,695.690857 456.156921,681.793579 455.439575,667.360596 
	C465.579254,665.879211 475.304871,664.287476 485.053802,664.128906 
	C509.177460,663.736511 533.311829,663.970459 557.441772,664.034424 
	C560.748230,664.043152 564.074341,664.362671 567.355530,664.804443 
	C576.879211,666.086731 576.823914,666.140808 577.020874,675.760376 
	C577.134216,681.299561 578.301697,686.375671 584.009460,689.007568 
M569.607971,806.473572 
	C564.198486,800.848328 559.091492,794.656067 549.108765,795.997437 
	C538.537781,796.168945 533.706787,799.960754 529.179810,811.002808 
	C520.492981,811.730530 518.313416,813.520325 517.162598,821.759216 
	C517.543335,823.540955 517.777100,825.370117 518.334229,827.094849 
	C519.646973,831.159119 521.445496,835.168884 526.274475,835.657593 
	C529.770691,836.011536 531.475098,837.888245 533.092957,840.563293 
	C537.006348,847.033936 542.631592,850.205017 550.422241,850.115540 
	C555.901611,850.052490 560.375366,848.933533 565.002808,845.548157 
	C568.883057,842.709473 571.902832,840.006958 572.604614,835.311340 
	C573.263672,830.901794 573.546448,826.436096 574.273010,821.323059 
	C574.889954,815.959778 573.501160,811.181641 569.607971,806.473572 
M657.175110,815.841125 
	C657.659241,824.001892 658.143311,832.162659 658.627441,840.323425 
	C659.278381,840.350037 659.929382,840.376648 660.580383,840.403259 
	C662.387756,831.604614 664.195068,822.805969 666.054810,813.290283 
	C666.408020,812.016479 666.896973,810.762817 667.088867,809.465149 
	C667.661194,805.595825 664.910828,804.702576 662.069092,803.275696 
	C658.755615,801.611877 657.740479,805.003296 655.474548,805.348755 
	C655.981384,808.575378 656.488281,811.802002 657.175110,815.841125 
M386.050415,819.811462 
	C386.045471,821.142029 385.960175,822.477966 386.048248,823.802307 
	C386.798279,835.079163 394.664917,844.167236 406.111816,847.025940 
	C417.644257,849.906006 428.243439,845.951721 434.188873,836.116150 
	C439.027283,828.112000 438.968536,820.497375 435.217316,811.250549 
	C431.248352,801.467041 424.491913,798.678467 415.801392,796.949768 
	C415.150360,796.820312 414.490417,796.397339 413.877228,796.470032 
	C409.092285,797.037354 403.738953,796.532654 399.662842,798.566711 
	C391.641113,802.569519 387.630035,810.143188 386.050415,819.811462 
M647.847961,816.767212 
	C648.269470,820.800842 647.824463,825.126648 651.335144,828.653503 
	C654.726257,821.578186 651.610291,807.154663 646.153809,805.024536 
	C646.694458,808.828735 647.197083,812.365845 647.847961,816.767212 
M638.002136,812.579590 
	C639.112244,818.338562 640.222412,824.097595 641.507019,830.761658 
	C645.699524,821.710999 642.993530,806.910400 637.041382,805.303528 
	C637.363892,807.582764 637.657776,809.659973 638.002136,812.579590 
M629.935242,808.994812 
	C631.057251,813.310974 632.179260,817.627136 633.301270,821.943298 
	C633.739685,821.824402 634.178101,821.705444 634.616577,821.586548 
	C635.803833,815.683411 634.003540,810.478455 630.088867,804.367004 
	C629.942688,806.535645 629.883911,807.406799 629.935242,808.994812 
z"/>
<path fill="#2E1501" opacity="1.000000" stroke="none" 
	d="
M606.468628,890.000000 
	C599.013794,856.588196 592.028625,823.176270 585.040161,789.764954 
	C584.256104,786.016602 583.206604,782.297668 582.817566,778.509888 
	C582.709351,777.455994 584.498657,775.227600 585.470886,775.196228 
	C593.793152,774.927490 602.127686,775.048096 610.458557,775.035095 
	C613.692505,775.030090 614.523621,777.113464 615.085205,779.832520 
	C619.968628,803.477783 624.937134,827.105408 629.881165,850.738159 
	C632.565002,863.566895 635.250488,876.395142 637.967590,889.611816 
	C627.645752,890.000000 617.291565,890.000000 606.468628,890.000000 
z"/>
<path fill="#2E1501" opacity="1.000000" stroke="none" 
	d="
M698.468628,890.000000 
	C695.495361,876.981201 693.096313,863.940979 690.463623,850.948120 
	C685.391479,825.916199 680.187134,800.911133 675.031921,775.496338 
	C683.182556,775.071167 691.339661,775.098999 699.494812,774.987976 
	C702.270142,774.950256 703.637268,775.913940 704.228088,778.806152 
	C711.745911,815.608704 719.377075,852.388123 726.989746,889.586731 
	C717.645752,890.000000 708.291565,890.000000 698.468628,890.000000 
z"/>
<path fill="#2E1501" opacity="1.000000" stroke="none" 
	d="
M339.444153,890.000000 
	C339.206207,888.855591 339.329498,887.688782 339.630859,886.570007 
	C345.765167,863.796692 351.975250,841.043701 358.048981,818.254272 
	C361.509399,805.270447 364.753052,792.228882 368.096313,779.213806 
	C369.090240,775.344482 371.315643,774.050964 375.657013,776.021729 
	C374.590942,780.370911 373.573486,784.701965 372.466339,789.010010 
	C364.137451,821.417664 355.788269,853.820129 347.463104,886.228760 
	C347.216553,887.188477 347.165436,888.198425 347.011597,889.592468 
	C344.629425,890.000000 342.258881,890.000000 339.444153,890.000000 
z"/>
<path fill="#2E1501" opacity="1.000000" stroke="none" 
	d="
M352.535950,774.047241 
	C349.226105,788.727051 345.487396,803.387207 341.756622,818.049377 
	C336.302887,839.483154 330.845001,860.915771 325.419067,882.356567 
	C324.849762,884.606201 324.483734,886.907288 324.011719,889.592285 
	C321.958344,890.000000 319.916656,890.000000 317.437500,890.000000 
	C320.137115,876.764038 323.151825,863.497559 326.438293,850.298767 
	C332.255310,826.937012 338.363068,803.646912 344.046051,780.253174 
	C345.197876,775.511780 347.148193,773.171082 352.535950,774.047241 
z"/>
<path fill="#000D0D" opacity="1.000000" stroke="none" 
	d="
M440.468658,890.000000 
	C442.164459,876.998596 442.164459,876.998596 454.988800,876.998596 
	C456.150665,876.998596 457.312500,876.998657 458.474365,876.998657 
	C470.320587,876.998779 470.546722,877.217957 470.999542,889.570007 
	C460.979095,890.000000 450.958221,890.000000 440.468658,890.000000 
z"/>
<path fill="#000D0D" opacity="1.000000" stroke="none" 
	d="
M530.416626,890.000000 
	C529.686279,886.230530 529.372620,882.461060 529.058899,878.691589 
	C529.928284,878.517456 530.797668,878.343323 531.666992,878.169189 
	C532.679260,881.874573 533.691467,885.580017 534.851868,889.642700 
	C533.611084,890.000000 532.222229,890.000000 530.416626,890.000000 
z"/>
<path fill="#211701" opacity="1.000000" stroke="none" 
	d="
M305.946167,488.994904 
	C285.435089,500.614990 263.371796,507.750092 239.983780,509.822937 
	C214.531662,512.078796 190.328781,507.397705 167.526718,495.045441 
	C157.335403,489.524628 148.164078,482.948425 139.612671,475.283936 
	C141.758881,474.538727 143.735275,474.215973 145.621002,473.610687 
	C162.105515,468.319550 176.230240,459.444366 188.000717,446.603729 
	C200.552094,432.911163 208.515244,416.971466 213.075073,399.121918 
	C216.282883,386.564972 216.151962,373.774078 216.520752,360.980530 
	C217.952988,360.975616 218.954880,361.016632 219.948792,360.945892 
	C238.481018,359.627350 257.023438,358.429810 275.537781,356.894012 
	C282.067688,356.352356 288.528412,354.976715 295.237610,354.334900 
	C296.306580,362.481903 297.047180,370.318787 293.869995,377.779022 
	C290.401794,385.922516 286.672455,393.955841 282.991364,402.007202 
	C280.624512,407.183990 278.960388,412.942657 275.556702,417.337097 
	C264.397858,431.744049 249.180695,440.402893 231.777100,444.988464 
	C221.880035,447.596252 211.688431,449.086182 201.629440,451.079498 
	C201.645493,451.726776 201.661530,452.374054 201.677567,453.021332 
	C209.702194,453.021332 217.789719,453.663025 225.737946,452.883759 
	C240.901001,451.397064 255.754593,448.141022 268.394745,438.964508 
	C277.124176,432.627106 284.299164,424.736511 290.938141,416.078888 
	C298.786469,405.844238 303.550629,394.609741 305.826630,382.237854 
	C310.566162,356.474304 308.629120,331.928101 291.402161,310.498993 
	C290.167236,308.962799 289.527924,306.960205 288.376770,305.341553 
	C286.212402,302.298157 283.979736,299.289368 281.569611,296.440369 
	C280.300507,294.940155 278.339142,294.010773 277.129944,292.477051 
	C267.425415,280.167969 254.115631,274.011322 239.290390,271.124756 
	C230.051682,269.325928 220.473923,267.904846 211.143738,268.343567 
	C202.723770,268.739471 194.433548,271.894989 185.624054,273.867767 
	C178.437057,273.601105 171.712112,273.300232 164.672073,272.847260 
	C159.536987,270.446869 154.901810,267.570953 149.857178,266.085510 
	C140.375748,263.293610 130.657837,261.304810 121.038269,258.982056 
	C128.860260,247.537094 139.425217,239.055557 150.636383,231.180435 
	C167.051437,219.649918 185.407043,213.180222 205.019104,210.131058 
	C221.424454,207.580460 237.744415,208.403366 253.811111,212.886810 
	C255.564392,213.376068 257.387024,213.616776 259.848450,214.239197 
	C262.024933,214.664383 263.530457,214.823166 265.036011,214.981949 
	C265.036011,214.981949 264.995667,215.011154 265.194214,215.267120 
	C282.844299,223.283432 299.356384,232.596695 314.192566,245.241333 
	C321.078003,253.291397 328.244934,260.714630 334.393280,268.902740 
	C339.846802,276.165527 344.168823,284.277924 349.022522,292.393494 
	C355.339355,309.370422 361.155212,326.072998 363.146942,343.886078 
	C363.830261,349.997620 365.370148,350.731689 371.514160,349.795776 
	C372.657257,349.621643 373.771454,349.257660 374.921509,349.450623 
	C374.289551,362.491699 374.164551,375.119049 372.849854,387.621338 
	C371.111115,404.156433 365.288330,419.735291 357.548218,434.218140 
	C351.971985,444.652191 344.422211,454.166168 336.887817,463.383514 
	C328.327820,473.855499 317.691467,482.184326 305.946167,488.994904 
z"/>
<path fill="#000000" opacity="1.000000" stroke="none" 
	d="
M717.650940,372.989441 
	C662.317383,388.611237 606.980896,404.222992 551.662598,419.898621 
	C549.815674,420.421967 548.151733,421.591400 545.866455,422.599884 
	C543.564575,422.874115 541.730591,422.745667 540.043823,423.183929 
	C527.674011,426.398041 515.333679,429.725647 503.215820,432.775421 
	C511.230011,426.554993 513.177307,417.606781 514.860046,408.828796 
	C519.008850,387.186615 519.702209,365.392242 518.206116,343.346527 
	C516.645508,320.351624 513.657043,297.696808 506.818604,275.698303 
	C503.624664,265.423981 500.203796,254.974838 490.978973,248.011230 
	C502.682343,249.439423 514.397278,250.779556 526.086670,252.314178 
	C550.298523,255.492798 574.499451,258.755219 598.699951,262.019867 
	C622.407898,265.218079 646.105713,268.492432 669.815735,271.674957 
	C685.950989,273.840790 702.099731,275.906006 718.826172,278.334167 
	C725.208679,281.826294 731.007507,285.000488 736.925415,288.493744 
	C741.700562,296.538574 746.356567,304.264343 751.012024,312.423126 
	C751.113708,314.015839 751.150330,315.185669 751.328491,316.333557 
	C752.977295,326.958466 751.953369,337.099091 747.117798,346.941681 
	C741.716614,357.935547 732.895447,365.142700 722.595764,370.986450 
	C722.595764,370.986450 722.450806,370.979675 722.002075,371.012054 
	C720.252563,371.692780 718.951782,372.341125 717.650940,372.989441 
z"/>
<path fill="#000000" opacity="1.000000" stroke="none" 
	d="
M216.086670,360.974396 
	C216.151962,373.774078 216.282883,386.564972 213.075073,399.121918 
	C208.515244,416.971466 200.552094,432.911163 188.000717,446.603729 
	C176.230240,459.444366 162.105515,468.319550 145.621002,473.610687 
	C143.735275,474.215973 141.758881,474.538727 139.428070,475.009644 
	C107.766434,482.329895 80.251778,474.430145 55.858669,454.301910 
	C40.229652,441.405457 29.548473,425.018646 22.883865,405.989349 
	C21.026457,400.685944 19.718410,395.190155 18.074600,389.395569 
	C13.627732,364.698853 14.970980,340.792755 25.365311,318.224274 
	C29.815664,308.561554 36.330585,299.746979 42.605686,291.050903 
	C52.621147,277.171387 68.012970,270.436981 82.787140,263.474030 
	C89.316704,260.396667 97.253571,260.047241 104.634682,259.123932 
	C109.713417,258.488647 114.935089,258.996033 120.565567,258.987396 
	C130.657837,261.304810 140.375748,263.293610 149.857178,266.085510 
	C154.901810,267.570953 159.536987,270.446869 164.817215,273.153870 
	C170.147186,277.110199 175.016922,280.607819 180.049866,284.399536 
	C181.294388,286.136841 182.192810,287.774170 183.485931,288.992615 
	C193.986771,298.886902 201.013260,311.105286 207.149734,324.331360 
	C211.929688,336.357391 214.802292,348.471039 216.086670,360.974396 
M91.171333,310.036102 
	C85.779892,310.248871 80.388451,310.461639 74.997017,310.674438 
	C79.964867,312.488983 84.871552,313.330017 89.584496,314.794556 
	C95.705902,316.696747 103.020599,317.599884 107.436256,321.579681 
	C117.747383,330.873016 126.633896,341.747040 136.228943,352.526245 
	C136.509995,353.001007 136.791046,353.475769 137.347290,354.735748 
	C143.813095,391.932007 125.157310,421.891754 80.739395,430.770477 
	C93.478859,431.647400 104.869102,430.012390 115.732552,426.749329 
	C144.863068,417.999420 161.318848,382.837494 150.797775,352.213715 
	C150.185455,350.326477 149.749374,348.358826 148.931183,346.565521 
	C144.738968,337.377014 140.301056,328.344849 130.690155,322.390411 
	C119.388245,313.411652 106.764893,308.568024 91.171333,310.036102 
M112.264183,382.251404 
	C115.279533,363.793091 110.775146,347.933197 95.991074,335.735779 
	C91.082664,331.686127 89.989571,331.903656 85.705383,336.546204 
	C72.198120,351.183258 69.800690,367.753143 77.177765,386.699829 
	C80.932404,394.722839 86.229813,401.460663 94.003983,405.879944 
	C95.385139,406.665070 98.233994,406.887970 99.221474,406.021515 
	C106.163429,399.930389 110.581123,392.281311 112.264183,382.251404 
z"/>
<path fill="#000000" opacity="1.000000" stroke="none" 
	d="
M306.354248,488.986603 
	C317.691467,482.184326 328.327820,473.855499 336.887817,463.383514 
	C344.422211,454.166168 351.971985,444.652191 357.548218,434.218140 
	C365.288330,419.735291 371.111115,404.156433 372.849854,387.621338 
	C374.164551,375.119049 374.289551,362.491699 374.922119,349.129150 
	C374.603729,347.557526 374.307190,346.776733 374.007690,345.563110 
	C373.006531,339.418671 372.008331,333.707062 370.990845,327.664734 
	C370.949249,326.892761 370.926910,326.451569 370.922363,325.617188 
	C370.292999,322.816010 369.645905,320.408020 368.920471,317.633789 
	C366.038391,309.530853 363.374268,301.738953 360.351318,294.088837 
	C359.361328,291.583496 357.439209,289.446533 355.927856,287.115845 
	C355.912354,287.090607 355.864349,287.055817 355.832581,286.717712 
	C354.855408,284.931854 353.910034,283.484161 352.870850,281.699066 
	C346.494476,267.625031 335.613556,257.436462 325.728180,246.498154 
	C324.607239,245.257828 322.641876,244.780670 320.867462,243.679718 
	C308.998779,234.541748 297.295715,225.729584 283.549225,220.182922 
	C294.905060,221.592728 306.269257,222.938446 317.614960,224.425583 
	C341.798553,227.595413 365.975677,230.815033 390.149506,234.058548 
	C413.502563,237.191940 436.847382,240.386948 460.197632,243.541534 
	C466.445496,244.385620 472.705170,245.143799 478.946899,246.029846 
	C480.195190,246.207047 481.386322,246.786423 482.352417,247.531097 
	C472.931824,248.602386 463.727173,249.039093 454.610443,250.179230 
	C450.814758,250.653900 446.047241,250.119202 443.686646,255.111755 
	C437.877472,261.435303 436.173828,269.220093 434.101929,277.220581 
	C433.421570,282.023376 432.789825,286.473755 432.061646,291.335114 
	C431.340790,296.820343 430.716400,301.894562 430.068634,307.438873 
	C430.678040,323.173523 430.794312,338.480927 432.057648,353.693146 
	C434.272217,380.359406 439.172455,406.415955 452.855347,430.142975 
	C451.052826,431.012146 449.558258,431.722076 447.999878,432.240204 
	C437.555206,435.712860 433.031738,441.958740 433.016937,453.013184 
	C418.984833,457.177277 404.983032,461.446899 390.914185,465.482941 
	C364.029633,473.195618 337.108215,480.779724 310.195587,488.394226 
	C309.084991,488.708466 307.908264,488.788971 306.354248,488.986603 
z"/>
<path fill="#211701" opacity="1.000000" stroke="none" 
	d="
M453.133820,429.894989 
	C439.172455,406.415955 434.272217,380.359406 432.057648,353.693146 
	C430.794312,338.480927 430.678040,323.173523 430.409546,307.598175 
	C436.182434,307.191986 441.591003,307.096619 447.024994,307.050720 
	C447.050385,307.100159 447.001221,306.999695 447.353638,306.790344 
	C449.333344,306.387909 450.958099,306.169586 452.588348,306.005676 
	C470.872467,304.167023 469.251556,308.388855 470.027191,287.543518 
	C470.786591,282.488586 471.450348,277.822876 472.388550,272.888306 
	C474.798828,266.078979 476.934631,259.538452 479.354004,252.849640 
	C481.062500,251.151382 482.487427,249.601456 483.912323,248.051544 
	C486.036407,247.994370 488.160461,247.937180 490.631775,247.945618 
	C500.203796,254.974838 503.624664,265.423981 506.818604,275.698303 
	C513.657043,297.696808 516.645508,320.351624 518.206116,343.346527 
	C519.702209,365.392242 519.008850,387.186615 514.860046,408.828796 
	C513.177307,417.606781 511.230011,426.554993 503.225159,432.767090 
	C503.002716,433.000793 503.022949,432.989227 502.594391,433.002655 
	C493.763947,433.677948 485.367188,434.778320 476.958710,434.876709 
	C468.761108,434.972656 459.855011,437.293640 453.133820,429.894989 
M514.013672,396.242340 
	C514.508301,392.392090 515.002869,388.541840 515.579163,384.055908 
	C511.323761,384.379211 506.980713,382.408783 505.267303,387.327301 
	C504.214264,390.350189 504.433716,393.816345 503.993134,397.935974 
	C503.766907,399.725708 503.857910,401.631714 503.252655,403.282501 
	C501.683075,407.563293 499.807037,411.731689 497.944550,416.689270 
	C497.781647,417.319183 497.559021,417.940613 497.468048,418.580750 
	C497.259369,420.048859 497.114899,421.526123 496.944366,422.999664 
	C498.638397,423.134216 500.948761,424.029114 501.905243,423.253784 
	C504.308075,421.305969 506.099030,418.603363 508.678802,415.711914 
	C510.427948,409.499817 512.177124,403.287720 514.013672,396.242340 
M480.000244,340.382141 
	C480.981293,346.539062 482.090729,352.679169 482.898987,358.858704 
	C483.450775,363.077820 485.013184,366.661621 489.618225,366.660095 
	C494.538879,366.658478 495.734192,362.324646 495.848999,358.500916 
	C496.105957,349.943726 496.191193,341.337433 495.531921,332.814117 
	C495.168701,328.118958 493.467285,323.429108 491.722198,318.991302 
	C491.094574,317.395142 488.558685,315.611786 486.919220,315.636108 
	C485.507233,315.657013 483.852142,317.940857 482.789337,319.545319 
	C478.725403,325.680511 480.285217,332.692596 480.000244,340.382141 
z"/>
<path fill="#533E0B" opacity="1.000000" stroke="none" 
	d="
M283.226196,220.095932 
	C297.295715,225.729584 308.998779,234.541748 320.529602,243.881256 
	C318.271912,244.550827 316.151489,244.749008 314.031067,244.947174 
	C299.356384,232.596695 282.844299,223.283432 265.191895,215.242340 
	C270.961731,216.644043 276.932434,218.326492 283.226196,220.095932 
z"/>
<path fill="#533E0B" opacity="1.000000" stroke="none" 
	d="
M483.682495,247.990448 
	C482.487427,249.601456 481.062500,251.151382 478.929565,252.872650 
	C471.994080,253.696121 465.779358,254.562500 459.535126,254.933838 
	C454.370422,255.240967 449.170929,254.963516 443.986847,254.945099 
	C446.047241,250.119202 450.814758,250.653900 454.610443,250.179230 
	C463.727173,249.039093 472.931824,248.602386 482.548340,247.839615 
	C482.995636,247.797379 483.452637,247.929352 483.682495,247.990448 
z"/>
<path fill="#372804" opacity="1.000000" stroke="none" 
	d="
M751.012634,311.990082 
	C746.356567,304.264343 741.700562,296.538574 737.348999,288.443359 
	C738.780884,288.047760 739.908142,288.021698 741.035461,287.995636 
	C743.806213,290.618286 746.576904,293.240936 749.584473,296.114502 
	C752.092529,301.339630 754.363647,306.313843 756.357666,311.632935 
	C754.391235,311.981934 752.701965,311.986023 751.012634,311.990082 
z"/>
<path fill="#533E0B" opacity="1.000000" stroke="none" 
	d="
M740.846069,287.715149 
	C739.908142,288.021698 738.780884,288.047760 737.229919,288.124268 
	C731.007507,285.000488 725.208679,281.826294 719.260559,278.344482 
	C727.556274,278.273315 734.198364,282.643280 740.846069,287.715149 
z"/>
<path fill="#533E0B" opacity="1.000000" stroke="none" 
	d="
M264.855347,214.722961 
	C263.530457,214.823166 262.024933,214.664383 260.242554,214.246109 
	C261.535370,214.145737 263.105042,214.304871 264.855347,214.722961 
z"/>
<path fill="#271101" opacity="1.000000" stroke="none" 
	d="
M584.355347,688.906067 
	C578.301697,686.375671 577.134216,681.299561 577.020874,675.760376 
	C576.823914,666.140808 576.879211,666.086731 567.355530,664.804443 
	C564.074341,664.362671 560.748230,664.043152 557.441772,664.034424 
	C533.311829,663.970459 509.177460,663.736511 485.053802,664.128906 
	C475.304871,664.287476 465.579254,665.879211 455.453491,666.903564 
	C456.136475,652.618896 457.082367,638.238464 458.320831,623.883362 
	C459.345459,612.007324 460.801910,600.168518 461.825134,588.292419 
	C461.956146,586.772217 461.026245,584.725220 459.904083,583.610779 
	C455.888000,579.622375 455.770203,575.257141 459.958221,571.472046 
	C463.544891,568.230408 462.825928,563.000488 458.215210,561.307739 
	C454.095764,559.795410 454.084656,556.781250 453.952759,553.321106 
	C453.816559,549.747314 455.788910,547.930237 458.744171,547.343567 
	C466.536652,545.796326 474.352692,544.144348 482.241241,543.386047 
	C487.168427,542.912415 488.557281,540.901672 488.046631,536.456482 
	C487.839386,534.652710 488.023560,532.804077 488.445190,530.467407 
	C493.703613,528.989807 498.542206,527.227417 503.390106,527.201416 
	C517.511780,527.125671 531.640381,527.663574 545.756470,528.212097 
	C547.218262,528.268860 548.614746,530.007935 550.041504,530.966431 
	C550.030273,532.463135 549.953308,533.962646 550.019165,535.455994 
	C550.302979,541.891541 551.104309,542.334106 557.565735,543.111206 
	C564.962097,544.001038 572.297119,545.437195 579.632935,546.777466 
	C582.943909,547.382385 584.811890,549.394104 584.998169,552.972168 
	C585.181213,556.487183 584.216614,558.982300 580.779297,560.593628 
	C575.866455,562.896667 575.437805,568.093018 579.648315,571.442078 
	C583.060974,574.156494 582.867981,580.031189 579.592834,583.056519 
	C578.509460,584.057251 577.597473,586.030090 577.736511,587.447571 
	C579.355530,603.943848 581.191284,620.418823 582.966614,636.899780 
	C583.055542,637.725464 582.957947,638.607605 583.215271,639.373291 
	C585.701782,646.772583 588.245728,654.152588 590.914795,661.951538 
	C591.887878,661.951538 594.011841,661.951538 596.864075,662.095947 
	C598.689331,662.340210 599.786194,662.440002 602.167542,662.656738 
	C600.466675,664.887878 599.259888,666.470825 598.053162,668.053833 
	C596.729553,668.034302 595.396606,668.108337 594.084106,667.977539 
	C590.141357,667.584473 589.000549,669.449097 588.881165,673.216614 
	C588.752258,677.287537 587.902222,681.361633 587.054932,685.368408 
	C586.789490,686.623596 585.514221,687.665222 584.355347,688.906067 
z"/>
<path fill="#211701" opacity="1.000000" stroke="none" 
	d="
M502.993408,433.009125 
	C515.333679,429.725647 527.674011,426.398041 540.043823,423.183929 
	C541.730591,422.745667 543.564575,422.874115 545.658936,422.885712 
	C545.713623,434.337616 545.104736,445.648804 545.269714,456.948730 
	C545.407471,466.375458 546.387634,475.794464 547.195129,485.199677 
	C547.276184,486.143921 548.657898,487.546814 549.595764,487.689911 
	C550.572449,487.838959 552.166016,487.001282 552.761719,486.108948 
	C557.714783,478.689636 564.072937,477.479614 571.032288,482.813141 
	C573.708618,484.864166 574.189880,490.428436 572.174072,494.919556 
	C570.663330,498.285248 567.989502,498.355042 565.051636,497.505463 
	C560.606995,496.220184 555.254517,497.355072 551.951233,492.694855 
	C551.834473,492.530060 548.434753,493.798950 548.272583,494.705292 
	C547.256042,500.383575 546.724854,506.148712 546.034851,511.869934 
	C552.684570,515.229797 553.455750,517.285461 549.767517,523.628174 
	C542.909851,523.251221 536.647522,522.627136 530.396667,521.903564 
	C520.331360,520.738464 510.271301,519.487671 500.807190,525.758362 
	C500.583893,524.350525 500.408325,523.243652 500.245300,522.216064 
	C495.893768,522.840210 491.957977,523.404663 488.022186,523.969177 
	C484.002533,518.141724 485.222565,515.154663 491.996490,512.489685 
	C490.710785,488.303070 486.889130,464.756165 480.290894,441.125549 
	C482.011200,439.921143 483.525574,439.272125 485.085632,438.762939 
	C491.056793,436.814026 497.042603,434.910004 503.022949,432.989227 
	C503.022949,432.989227 503.002716,433.000793 502.993408,433.009125 
M507.008911,506.395813 
	C506.803131,509.418610 507.934082,511.069641 511.245148,511.011292 
	C517.187622,510.906586 523.133362,510.981812 529.024780,510.981812 
	C528.077271,505.631409 527.183716,500.585693 526.074036,494.319458 
	C524.139709,497.737030 523.029297,499.698883 521.918884,501.660736 
	C520.407959,499.485901 518.897034,497.311096 517.790833,495.718811 
	C515.826965,497.123718 513.903320,499.607025 511.799835,499.770050 
	C507.651947,500.091461 506.681915,501.987183 507.008911,506.395813 
M505.000061,503.576965 
	C504.318268,501.870880 503.636505,500.164795 502.954712,498.458710 
	C502.356354,498.681488 501.758026,498.904266 501.159668,499.127014 
	C501.264008,501.048584 501.061768,503.053406 501.554871,504.869385 
	C502.099213,506.873993 503.281189,508.705475 504.185455,510.612335 
	C504.461700,508.541687 504.737976,506.471069 505.000061,503.576965 
M536.319092,477.448395 
	C533.957153,477.697266 531.573669,477.842285 529.260193,478.323822 
	C528.964478,478.385406 528.854004,481.054382 528.960876,481.076874 
	C530.822998,481.469391 532.834778,482.078430 534.589417,481.671631 
	C535.499512,481.460632 535.972839,479.365326 536.319092,477.448395 
z"/>
<path fill="#000606" opacity="1.000000" stroke="none" 
	d="
M502.594391,433.002655 
	C497.042603,434.910004 491.056793,436.814026 485.085632,438.762939 
	C483.525574,439.272125 482.011200,439.921143 480.202454,440.746399 
	C475.299286,442.039459 470.660187,443.052734 466.041962,444.153870 
	C459.025208,445.826935 451.997009,447.462982 445.024872,449.308167 
	C441.218658,450.315491 437.517822,451.720917 433.393188,452.980011 
	C433.031738,441.958740 437.555206,435.712860 447.999878,432.240204 
	C449.558258,431.722076 451.052826,431.012146 452.855347,430.142975 
	C459.855011,437.293640 468.761108,434.972656 476.958710,434.876709 
	C485.367188,434.778320 493.763947,433.677948 502.594391,433.002655 
z"/>
<path fill="#000000" opacity="1.000000" stroke="none" 
	d="
M487.841370,524.263611 
	C491.957977,523.404663 495.893768,522.840210 500.245300,522.216064 
	C500.408325,523.243652 500.583893,524.350525 500.807190,525.758362 
	C510.271301,519.487671 520.331360,520.738464 530.396667,521.903564 
	C536.647522,522.627136 542.909851,523.251221 549.568848,523.941284 
	C552.392578,525.950806 552.657410,528.139771 550.312256,530.756348 
	C548.614746,530.007935 547.218262,528.268860 545.756470,528.212097 
	C531.640381,527.663574 517.511780,527.125671 503.390106,527.201416 
	C498.542206,527.227417 493.703613,528.989807 488.451233,530.007019 
	C484.808838,528.438110 486.522522,526.478149 487.841370,524.263611 
z"/>
<path fill="#211701" opacity="1.000000" stroke="none" 
	d="
M751.012024,312.423126 
	C752.701965,311.986023 754.391235,311.981934 756.499390,311.962067 
	C761.250366,331.179321 756.658936,347.938385 742.022644,361.204193 
	C736.886230,365.859650 731.140686,370.577667 723.036011,371.007507 
	C732.895447,365.142700 741.716614,357.935547 747.117798,346.941681 
	C751.953369,337.099091 752.977295,326.958466 751.328491,316.333557 
	C751.150330,315.185669 751.113708,314.015839 751.012024,312.423126 
z"/>
<path fill="#FCC234" opacity="1.000000" stroke="none" 
	d="
M598.026184,668.416992 
	C599.259888,666.470825 600.466675,664.887878 602.167542,662.656738 
	C599.786194,662.440002 598.689331,662.340210 597.276184,662.122314 
	C600.229553,656.414368 605.729797,655.639038 611.263794,656.191589 
	C613.512756,656.416138 617.149109,658.681091 617.299866,660.285767 
	C617.531433,662.751343 615.688660,665.745911 613.996582,667.958008 
	C612.496643,669.918884 610.002502,671.119263 608.234131,673.260620 
	C603.921875,674.564270 600.720825,672.193298 598.026184,668.416992 
z"/>
<path fill="#211701" opacity="1.000000" stroke="none" 
	d="
M718.058594,372.999908 
	C718.951782,372.341125 720.252563,371.692780 721.929565,371.013214 
	C721.025879,371.658081 719.746033,372.334198 718.058594,372.999908 
z"/>
<path fill="#211701" opacity="1.000000" stroke="none" 
	d="
M386.087708,819.379944 
	C387.630035,810.143188 391.641113,802.569519 399.662842,798.566711 
	C403.738953,796.532654 409.092285,797.037354 413.877228,796.470032 
	C414.490417,796.397339 415.150360,796.820312 415.801392,796.949768 
	C424.491913,798.678467 431.248352,801.467041 435.217316,811.250549 
	C438.968536,820.497375 439.027283,828.112000 434.188873,836.116150 
	C428.243439,845.951721 417.644257,849.906006 406.111816,847.025940 
	C394.664917,844.167236 386.798279,835.079163 386.048248,823.802307 
	C385.960175,822.477966 386.045471,821.142029 386.087708,819.379944 
z"/>
<path fill="#211701" opacity="1.000000" stroke="none" 
	d="
M529.997681,810.997559 
	C533.706787,799.960754 538.537781,796.168945 549.800964,796.219727 
	C554.325256,799.966858 558.157288,803.491699 562.147034,807.339417 
	C563.299133,810.255920 564.929993,812.794983 565.157959,815.454407 
	C565.662842,821.343140 568.807434,822.847717 573.994751,821.995117 
	C573.546448,826.436096 573.263672,830.901794 572.604614,835.311340 
	C571.902832,840.006958 568.883057,842.709473 565.002808,845.548157 
	C560.375366,848.933533 555.901611,850.052490 550.422241,850.115540 
	C542.631592,850.205017 537.006348,847.033936 533.092957,840.563293 
	C531.475098,837.888245 529.770691,836.011536 526.274475,835.657593 
	C521.445496,835.168884 519.646973,831.159119 518.334229,827.094849 
	C517.777100,825.370117 517.543335,823.540955 517.414917,821.321533 
	C520.621948,819.949280 521.325378,821.719543 522.013000,824.107605 
	C522.734924,826.614685 523.603577,829.268799 525.137634,831.310486 
	C527.757141,834.796692 533.667786,835.561401 536.271179,832.844421 
	C538.988892,830.008301 539.790955,826.705994 535.792480,823.514648 
	C539.888916,823.047791 543.400269,822.647583 546.911621,822.247375 
	C546.877686,821.591919 546.843689,820.936462 546.809692,820.281006 
	C544.778809,820.176514 542.732056,820.191711 540.722351,819.926758 
	C539.312805,819.740906 537.554749,819.581421 536.648865,818.696899 
	C534.231018,816.336060 532.189026,813.590271 529.997681,810.997559 
z"/>
<path fill="#2A1D02" opacity="1.000000" stroke="none" 
	d="
M529.588745,811.000183 
	C532.189026,813.590271 534.231018,816.336060 536.648865,818.696899 
	C537.554749,819.581421 539.312805,819.740906 540.722351,819.926758 
	C542.732056,820.191711 544.778809,820.176514 546.809692,820.281006 
	C546.843689,820.936462 546.877686,821.591919 546.911621,822.247375 
	C543.400269,822.647583 539.888916,823.047791 535.792480,823.514648 
	C539.790955,826.705994 538.988892,830.008301 536.271179,832.844421 
	C533.667786,835.561401 527.757141,834.796692 525.137634,831.310486 
	C523.603577,829.268799 522.734924,826.614685 522.013000,824.107605 
	C521.325378,821.719543 520.621948,819.949280 517.334839,820.943176 
	C518.313416,813.520325 520.492981,811.730530 529.588745,811.000183 
z"/>
<path fill="#271101" opacity="1.000000" stroke="none" 
	d="
M666.002441,814.007324 
	C664.195068,822.805969 662.387756,831.604614 660.580383,840.403259 
	C659.929382,840.376648 659.278381,840.350037 658.627441,840.323425 
	C658.143311,832.162659 657.659241,824.001892 657.457031,815.279297 
	C660.493469,814.480774 663.247986,814.244080 666.002441,814.007324 
z"/>
<path fill="#2A1D02" opacity="1.000000" stroke="none" 
	d="
M574.133911,821.659058 
	C568.807434,822.847717 565.662842,821.343140 565.157959,815.454407 
	C564.929993,812.794983 563.299133,810.255920 562.594666,807.342163 
	C565.287109,807.012390 567.689575,807.002625 570.092102,806.992920 
	C573.501160,811.181641 574.889954,815.959778 574.133911,821.659058 
z"/>
<path fill="#2A1D02" opacity="1.000000" stroke="none" 
	d="
M666.028625,813.648804 
	C663.247986,814.244080 660.493469,814.480774 657.367065,814.873047 
	C656.488281,811.802002 655.981384,808.575378 655.474548,805.348755 
	C657.740479,805.003296 658.755615,801.611877 662.069092,803.275696 
	C664.910828,804.702576 667.661194,805.595825 667.088867,809.465149 
	C666.896973,810.762817 666.408020,812.016479 666.028625,813.648804 
z"/>
<path fill="#271101" opacity="1.000000" stroke="none" 
	d="
M647.773804,816.335083 
	C647.197083,812.365845 646.694458,808.828735 646.153809,805.024536 
	C651.610291,807.154663 654.726257,821.578186 651.335144,828.653503 
	C647.824463,825.126648 648.269470,820.800842 647.773804,816.335083 
z"/>
<path fill="#271101" opacity="1.000000" stroke="none" 
	d="
M637.976929,812.158447 
	C637.657776,809.659973 637.363892,807.582764 637.041382,805.303528 
	C642.993530,806.910400 645.699524,821.710999 641.507019,830.761658 
	C640.222412,824.097595 639.112244,818.338562 637.976929,812.158447 
z"/>
<path fill="#372804" opacity="1.000000" stroke="none" 
	d="
M569.850037,806.733215 
	C567.689575,807.002625 565.287109,807.012390 562.436951,807.019409 
	C558.157288,803.491699 554.325256,799.966858 550.229858,796.218628 
	C559.091492,794.656067 564.198486,800.848328 569.850037,806.733215 
z"/>
<path fill="#271101" opacity="1.000000" stroke="none" 
	d="
M629.880249,808.636414 
	C629.883911,807.406799 629.942688,806.535645 630.088867,804.367004 
	C634.003540,810.478455 635.803833,815.683411 634.616577,821.586548 
	C634.178101,821.705444 633.739685,821.824402 633.301270,821.943298 
	C632.179260,817.627136 631.057251,813.310974 629.880249,808.636414 
z"/>
<path fill="#000000" opacity="1.000000" stroke="none" 
	d="
M186.086105,273.833527 
	C194.433548,271.894989 202.723770,268.739471 211.143738,268.343567 
	C220.473923,267.904846 230.051682,269.325928 239.290390,271.124756 
	C254.115631,274.011322 267.425415,280.167969 277.129944,292.477051 
	C278.339142,294.010773 280.300507,294.940155 281.569611,296.440369 
	C283.979736,299.289368 286.212402,302.298157 288.376770,305.341553 
	C289.527924,306.960205 290.167236,308.962799 291.402161,310.498993 
	C308.629120,331.928101 310.566162,356.474304 305.826630,382.237854 
	C303.550629,394.609741 298.786469,405.844238 290.938141,416.078888 
	C284.299164,424.736511 277.124176,432.627106 268.394745,438.964508 
	C255.754593,448.141022 240.901001,451.397064 225.737946,452.883759 
	C217.789719,453.663025 209.702194,453.021332 201.677567,453.021332 
	C201.661530,452.374054 201.645493,451.726776 201.629440,451.079498 
	C211.688431,449.086182 221.880035,447.596252 231.777100,444.988464 
	C249.180695,440.402893 264.397858,431.744049 275.556702,417.337097 
	C278.960388,412.942657 280.624512,407.183990 282.991364,402.007202 
	C286.672455,393.955841 290.401794,385.922516 293.869995,377.779022 
	C297.047180,370.318787 296.306580,362.481903 295.225464,353.947388 
	C294.623260,351.289856 294.482208,349.290588 293.837036,347.470032 
	C290.931854,339.272369 287.883698,331.125336 285.028076,322.667358 
	C284.005219,320.025330 282.777344,317.705322 281.688049,315.321960 
	C275.071198,300.844452 263.326599,292.070892 248.917145,285.729797 
	C243.210556,282.966125 237.928101,279.860870 232.233215,278.059265 
	C217.216980,273.308746 201.459167,275.444763 186.086105,273.833527 
z"/>
<path fill="#2A1D02" opacity="1.000000" stroke="none" 
	d="
M284.887085,322.960052 
	C287.883698,331.125336 290.931854,339.272369 293.837036,347.470032 
	C294.482208,349.290588 294.623260,351.289856 295.008606,353.594299 
	C288.528412,354.976715 282.067688,356.352356 275.537781,356.894012 
	C257.023438,358.429810 238.481018,359.627350 219.948792,360.945892 
	C218.954880,361.016632 217.952988,360.975616 216.520752,360.980530 
	C214.802292,348.471039 211.929688,336.357391 207.607117,324.341980 
	C233.647385,323.640869 259.267242,323.300476 284.887085,322.960052 
z"/>
<path fill="#533E0B" opacity="1.000000" stroke="none" 
	d="
M185.624054,273.867767 
	C201.459167,275.444763 217.216980,273.308746 232.233215,278.059265 
	C237.928101,279.860870 243.210556,282.966125 248.441772,285.740723 
	C225.430573,285.371338 202.658615,284.738373 179.886673,284.105408 
	C175.016922,280.607819 170.147186,277.110199 165.132294,273.305969 
	C171.712112,273.300232 178.437057,273.601105 185.624054,273.867767 
z"/>
<path fill="#2A1D02" opacity="1.000000" stroke="none" 
	d="
M374.010681,345.995972 
	C374.307190,346.776733 374.603729,347.557526 374.899597,348.659790 
	C373.771454,349.257660 372.657257,349.621643 371.514160,349.795776 
	C365.370148,350.731689 363.830261,349.997620 363.146942,343.886078 
	C361.155212,326.072998 355.339355,309.370422 349.446930,292.389130 
	C351.918335,291.886658 353.997528,291.766785 356.371765,291.629913 
	C356.190674,289.732544 356.067017,288.436829 355.943359,287.141113 
	C357.439209,289.446533 359.361328,291.583496 360.351318,294.088837 
	C363.374268,301.738953 366.038391,309.530853 368.743164,317.924774 
	C369.397614,321.058105 370.151093,323.534241 370.904572,326.010376 
	C370.926910,326.451569 370.949249,326.892761 370.788269,327.993042 
	C371.740204,334.433411 372.875458,340.214691 374.010681,345.995972 
z"/>
<path fill="#372804" opacity="1.000000" stroke="none" 
	d="
M355.927856,287.115845 
	C356.067017,288.436829 356.190674,289.732544 356.371765,291.629913 
	C353.997528,291.766785 351.918335,291.886658 349.414734,292.010864 
	C344.168823,284.277924 339.846802,276.165527 334.393280,268.902740 
	C328.244934,260.714630 321.078003,253.291397 314.192566,245.241333 
	C316.151489,244.749008 318.271912,244.550827 320.730225,244.151138 
	C322.641876,244.780670 324.607239,245.257828 325.728180,246.498154 
	C335.613556,257.436462 346.494476,267.625031 352.794800,281.970978 
	C353.829865,284.072113 354.847107,285.563965 355.864349,287.055817 
	C355.864349,287.055817 355.912354,287.090607 355.927856,287.115845 
z"/>
<path fill="#372804" opacity="1.000000" stroke="none" 
	d="
M180.049866,284.399536 
	C202.658615,284.738373 225.430573,285.371338 248.677887,285.993347 
	C263.326599,292.070892 275.071198,300.844452 281.688049,315.321960 
	C282.777344,317.705322 284.005219,320.025330 285.028076,322.667358 
	C259.267242,323.300476 233.647385,323.640869 207.570160,323.970642 
	C201.013260,311.105286 193.986771,298.886902 183.485931,288.992615 
	C182.192810,287.774170 181.294388,286.136841 180.049866,284.399536 
z"/>
<path fill="#211701" opacity="1.000000" stroke="none" 
	d="
M77.054001,386.015778 
	C69.800690,367.753143 72.198120,351.183258 85.705383,336.546204 
	C89.989571,331.903656 91.082664,331.686127 95.991074,335.735779 
	C110.775146,347.933197 115.279533,363.793091 111.718491,382.545471 
	C109.881165,382.642548 108.555183,382.149872 107.303329,382.295319 
	C97.212334,383.467590 87.135300,384.760040 77.054001,386.015778 
z"/>
<path fill="#211701" opacity="1.000000" stroke="none" 
	d="
M150.905167,352.938263 
	C161.318848,382.837494 144.863068,417.999420 115.732552,426.749329 
	C104.869102,430.012390 93.478859,431.647400 80.739395,430.770477 
	C125.157310,421.891754 143.813095,391.932007 137.631088,354.348694 
	C142.244980,353.620514 146.575073,353.279388 150.905167,352.938263 
z"/>
<path fill="#2A1D02" opacity="1.000000" stroke="none" 
	d="
M77.115883,386.357788 
	C87.135300,384.760040 97.212334,383.467590 107.303329,382.295319 
	C108.555183,382.149872 109.881165,382.642548 111.545715,382.927551 
	C110.581123,392.281311 106.163429,399.930389 99.221474,406.021515 
	C98.233994,406.887970 95.385139,406.665070 94.003983,405.879944 
	C86.229813,401.460663 80.932404,394.722839 77.115883,386.357788 
z"/>
<path fill="#372804" opacity="1.000000" stroke="none" 
	d="
M150.851471,352.575989 
	C146.575073,353.279388 142.244980,353.620514 137.493484,353.956085 
	C136.791046,353.475769 136.509995,353.001007 136.299591,351.971680 
	C135.774216,349.051880 135.733826,346.328156 134.481110,344.386597 
	C130.216583,337.777069 125.524498,331.443420 121.404465,324.983459 
	C124.905655,324.286438 127.998016,323.610382 131.090378,322.934326 
	C140.301056,328.344849 144.738968,337.377014 148.931183,346.565521 
	C149.749374,348.358826 150.185455,350.326477 150.851471,352.575989 
z"/>
<path fill="#211701" opacity="1.000000" stroke="none" 
	d="
M120.995636,325.004425 
	C125.524498,331.443420 130.216583,337.777069 134.481110,344.386597 
	C135.733826,346.328156 135.774216,349.051880 136.233826,351.698975 
	C126.633896,341.747040 117.747383,330.873016 107.436256,321.579681 
	C103.020599,317.599884 95.705902,316.696747 89.584496,314.794556 
	C84.871552,313.330017 79.964867,312.488983 74.997017,310.674438 
	C80.388451,310.461639 85.779892,310.248871 91.912659,310.285156 
	C103.418320,312.777893 112.829124,317.672607 120.995636,325.004425 
z"/>
<path fill="#533E0B" opacity="1.000000" stroke="none" 
	d="
M121.404465,324.983459 
	C112.829124,317.672607 103.418320,312.777893 92.384903,310.298828 
	C106.764893,308.568024 119.388245,313.411652 130.890259,322.662354 
	C127.998016,323.610382 124.905655,324.286438 121.404465,324.983459 
z"/>
<path fill="#8E6D1E" opacity="1.000000" stroke="none" 
	d="
M443.686646,255.111755 
	C449.170929,254.963516 454.370422,255.240967 459.535126,254.933838 
	C465.779358,254.562500 471.994080,253.696121 478.645996,253.020966 
	C476.934631,259.538452 474.798828,266.078979 471.967499,272.921875 
	C464.912659,273.815887 458.550964,274.382996 452.194763,275.006195 
	C446.177032,275.596222 440.165039,276.245117 434.150543,276.868134 
	C436.173828,269.220093 437.877472,261.435303 443.686646,255.111755 
z"/>
<path fill="#372804" opacity="1.000000" stroke="none" 
	d="
M469.931549,287.932678 
	C469.251556,308.388855 470.872467,304.167023 452.588348,306.005676 
	C450.958099,306.169586 449.333344,306.387909 447.353027,306.790497 
	C447.000000,307.000000 446.999603,307.001221 446.999603,307.001221 
	C441.591003,307.096619 436.182434,307.191986 430.432922,307.128082 
	C430.716400,301.894562 431.340790,296.820343 432.491211,291.349915 
	C445.322021,289.946686 457.626770,288.939697 469.931549,287.932678 
z"/>
<path fill="#533E0B" opacity="1.000000" stroke="none" 
	d="
M470.027191,287.543518 
	C457.626770,288.939697 445.322021,289.946686 432.587677,290.938904 
	C432.789825,286.473755 433.421570,282.023376 434.101929,277.220581 
	C440.165039,276.245117 446.177032,275.596222 452.194763,275.006195 
	C458.550964,274.382996 464.912659,273.815887 471.693054,273.190704 
	C471.450348,277.822876 470.786591,282.488586 470.027191,287.543518 
z"/>
<path fill="#211701" opacity="1.000000" stroke="none" 
	d="
M374.007690,345.563110 
	C372.875458,340.214691 371.740204,334.433411 370.807556,328.323792 
	C372.008331,333.707062 373.006531,339.418671 374.007690,345.563110 
z"/>
<path fill="#211701" opacity="1.000000" stroke="none" 
	d="
M370.922363,325.617188 
	C370.151093,323.534241 369.397614,321.058105 368.821472,318.290985 
	C369.645905,320.408020 370.292999,322.816010 370.922363,325.617188 
z"/>
<path fill="#2A1D02" opacity="1.000000" stroke="none" 
	d="
M355.832581,286.717712 
	C354.847107,285.563965 353.829865,284.072113 352.888641,282.308350 
	C353.910034,283.484161 354.855408,284.931854 355.832581,286.717712 
z"/>
<path fill="#000000" opacity="1.000000" stroke="none" 
	d="
M480.000122,339.897247 
	C480.285217,332.692596 478.725403,325.680511 482.789337,319.545319 
	C483.852142,317.940857 485.507233,315.657013 486.919220,315.636108 
	C488.558685,315.611786 491.094574,317.395142 491.722198,318.991302 
	C493.467285,323.429108 495.168701,328.118958 495.531921,332.814117 
	C496.191193,341.337433 496.105957,349.943726 495.848999,358.500916 
	C495.734192,362.324646 494.538879,366.658478 489.618225,366.660095 
	C485.013184,366.661621 483.450775,363.077820 482.898987,358.858704 
	C482.090729,352.679169 480.981293,346.539062 480.000122,339.897247 
M490.298431,334.001312 
	C487.728760,338.276031 488.488739,345.836426 491.746307,348.405426 
	C495.112793,344.376862 494.703247,337.341827 490.298431,334.001312 
z"/>
<path fill="#8E6D1E" opacity="1.000000" stroke="none" 
	d="
M498.053284,415.944946 
	C499.807037,411.731689 501.683075,407.563293 503.252655,403.282501 
	C503.857910,401.631714 503.766907,399.725708 504.482880,397.473206 
	C507.957184,397.032196 510.941711,397.053925 513.926270,397.075653 
	C512.177124,403.287720 510.427948,409.499817 507.944519,415.945068 
	C504.157928,416.100464 501.105591,416.022705 498.053284,415.944946 
z"/>
<path fill="#533E0B" opacity="1.000000" stroke="none" 
	d="
M513.969971,396.658997 
	C510.941711,397.053925 507.957184,397.032196 504.527222,397.046967 
	C504.433716,393.816345 504.214264,390.350189 505.267303,387.327301 
	C506.980713,382.408783 511.323761,384.379211 515.579163,384.055908 
	C515.002869,388.541840 514.508301,392.392090 513.969971,396.658997 
z"/>
<path fill="#533E0B" opacity="1.000000" stroke="none" 
	d="
M497.998901,416.317108 
	C501.105591,416.022705 504.157928,416.100464 507.672791,416.190826 
	C506.099030,418.603363 504.308075,421.305969 501.905243,423.253784 
	C500.948761,424.029114 498.638397,423.134216 496.944397,422.999664 
	C497.114899,421.526123 497.259369,420.048859 497.468048,418.580750 
	C497.559021,417.940613 497.781647,417.319183 497.998901,416.317108 
z"/>
<path fill="#372804" opacity="1.000000" stroke="none" 
	d="
M447.000610,306.999847 
	C447.001221,306.999695 447.050385,307.100159 447.024994,307.050690 
	C446.999603,307.001221 447.000000,307.000000 447.000610,306.999847 
z"/>
<path fill="#000000" opacity="1.000000" stroke="none" 
	d="
M507.006531,505.951294 
	C506.681915,501.987183 507.651947,500.091461 511.799835,499.770050 
	C513.903320,499.607025 515.826965,497.123718 517.790833,495.718811 
	C518.897034,497.311096 520.407959,499.485901 521.918884,501.660736 
	C523.029297,499.698883 524.139709,497.737030 526.074036,494.319458 
	C527.183716,500.585693 528.077271,505.631409 529.024780,510.981812 
	C523.133362,510.981812 517.187622,510.906586 511.245148,511.011292 
	C507.934082,511.069641 506.803131,509.418610 507.006531,505.951294 
z"/>
<path fill="#000000" opacity="1.000000" stroke="none" 
	d="
M505.007141,503.988708 
	C504.737976,506.471069 504.461700,508.541687 504.185455,510.612335 
	C503.281189,508.705475 502.099213,506.873993 501.554871,504.869385 
	C501.061768,503.053406 501.264008,501.048584 501.159668,499.127014 
	C501.758026,498.904266 502.356354,498.681488 502.954712,498.458710 
	C503.636505,500.164795 504.318268,501.870880 505.007141,503.988708 
z"/>
<path fill="#372804" opacity="1.000000" stroke="none" 
	d="
M536.481323,477.784851 
	C535.972839,479.365326 535.499512,481.460632 534.589417,481.671631 
	C532.834778,482.078430 530.822998,481.469391 528.960876,481.076874 
	C528.854004,481.054382 528.964478,478.385406 529.260193,478.323822 
	C531.573669,477.842285 533.957153,477.697266 536.481323,477.784851 
z"/>
<path fill="#211701" opacity="1.000000" stroke="none" 
	d="
M490.595093,333.863373 
	C494.703247,337.341827 495.112793,344.376862 491.746307,348.405426 
	C488.488739,345.836426 487.728760,338.276031 490.595093,333.863373 
z"/>
</svg>